<svg xmlns="http://www.w3.org/2000/svg" xmlns:xlink="http://www.w3.org/1999/xlink" width="180" height="37" viewBox="31.81 5.62 180 37"><defs><path id="a" d="M53.257 36.241c2.299-.029 4.48-.365 6.41-1.014.486-.164.949-.344 1.389-.541-.537 1.312-1.327 2.406-2.354 3.219a15.788 15.788 0 0 1-7.022 2.912c.651-1.127 1.175-2.711 1.577-4.576m-10.816 3.188a.775.775 0 0 0-.158-.105c-.904-.439-1.27-2.455-.799-5.539 1.737.781 3.63 1.4 5.618 1.826 1.507.322 3.009.521 4.476.598-.72 3.129-1.642 4.771-2.253 4.771-.04 0-.077.006-.114.012a15.837 15.837 0 0 1-6.77-1.563m-8.393-9.965a8.554 8.554 0 0 1-.262-1.615 14.25 14.25 0 0 0 1.995 2.258c1.191 1.102 2.605 2.086 4.181 2.93-.321 1.801-.412 3.43-.209 4.746a15.918 15.918 0 0 1-5.705-8.319m20.235-4.371c0-.636-.01-1.274-.028-1.911 2.025-.134 3.9-.661 5.436-1.544 1.421 2.813 2.185 5.779 2.178 8.58-.001.811-.07 1.582-.2 2.311a12.38 12.38 0 0 1-2.52 1.156c-1.681.564-3.575.873-5.582.926.482-2.895.716-6.255.716-9.518m-6.84 8.928a26.224 26.224 0 0 1-5.646-1.885c.566-2.547 1.621-5.637 3.293-9.064.243-.497.491-.984.744-1.463 1.169.525 2.441.941 3.775 1.226 1.013.217 2.026.335 3.019.37.018.61.027 1.241.027 1.889 0 3.834-.307 7.016-.749 9.5a27.332 27.332 0 0 1-4.463-.573m-10.556-5.11c-1.383-1.277-2.333-2.631-2.817-3.974.383-1.506 1.126-3.017 2.219-4.464 1.037-1.373 2.326-2.61 3.807-3.673.426.771 1.025 1.524 1.786 2.238a13.488 13.488 0 0 0 2.502 1.83c-.258.488-.51.985-.755 1.49-1.444 2.959-2.624 6.135-3.315 9.016-1.286-.725-2.442-1.551-3.427-2.463m16.29-15.127c1.852 1.378 3.547 3.155 4.966 5.234.269.395.522.795.764 1.2-1.301.751-2.945 1.201-4.72 1.327-.15-2.809-.482-5.512-1.01-7.761m-3.228 7.458a17.277 17.277 0 0 1-3.329-1.065c1.519-2.657 3.18-4.967 4.819-6.685.512 2.015.941 4.723 1.123 8.082a15.61 15.61 0 0 1-2.613-.332m-6.956-3.392c-.673-.63-1.185-1.287-1.529-1.947a21.996 21.996 0 0 1 5.011-2.206 23.386 23.386 0 0 1 3.232-.725c-1.559 1.746-3.115 3.965-4.542 6.471a11.96 11.96 0 0 1-2.172-1.593m-3.5-5.187c-.022.083-.046.166-.063.252a5.136 5.136 0 0 0 .048 2.335c-1.751 1.208-3.275 2.637-4.488 4.242a16.5 16.5 0 0 0-1 1.49 15.903 15.903 0 0 1 5.503-8.319m1.527.591c.18-.845.688-1.599 1.474-2.224 1.9-.567 4.111-.431 6.434.42-.978.17-1.956.395-2.92.687a23.746 23.746 0 0 0-5.042 2.171 3.414 3.414 0 0 1 .054-1.054m13.206-2.144c.559-.361 1.073-.61 1.503-.712.817.328 1.626.745 2.393 1.273a20.11 20.11 0 0 0-3.896-.561m-2.742-1.744c.661.074 1.365.188 2.089.356-.454.243-.924.548-1.401.914a8.346 8.346 0 0 0-.688-1.27m-1.764.64c-.736-.282-1.464-.5-2.182-.657a15.8 15.8 0 0 1 1.75-.101c.277.003.617.336.973.98a14.97 14.97 0 0 0-.541-.222M31.81 25.12c0 1.664.239 3.271.675 4.797.027.105.051.205.082.309l.022.057c2.208 7.137 8.87 12.338 16.723 12.338 3.633 0 7.011-1.113 9.811-3.016.028-.016.056-.029.082-.047.166-.113.327-.23.483-.355a17.55 17.55 0 0 0 6.6-9.832 7.17 7.17 0 0 0 .146-.559c.009-.045.012-.09.015-.133.238-1.15.363-2.34.363-3.559 0-2.361-.462-4.654-1.375-6.811a.814.814 0 0 0-1.499.633 15.772 15.772 0 0 1 1.247 6.178c0 1.312-.164 2.59-.466 3.811-.24.771-.663 1.484-1.247 2.131.014-.277.024-.557.024-.84.006-3.125-.857-6.421-2.459-9.522 1.175-1.008 1.923-2.254 2.18-3.648a.812.812 0 0 0-.652-.947.812.812 0 0 0-.948.652c-.17.921-.648 1.767-1.397 2.485a25.304 25.304 0 0 0-.731-1.142c-1.429-2.095-3.126-3.907-4.984-5.353 2.452.161 4.719.755 6.544 1.775.286.164.667.159.934-.065a.814.814 0 0 0 .104-1.147c-2.622-3.668-7.157-5.69-12.774-5.69-9.651 0-17.503 7.851-17.503 17.5"/></defs><clipPath id="b"><use xlink:href="#a" overflow="visible"/></clipPath><radialGradient id="c" cx="-127.336" cy="-310.528" r=".479" gradientTransform="matrix(60.7425 0 0 60.7427 7799.985 18876.488)" gradientUnits="userSpaceOnUse"><stop offset="0" stop-color="#fff"/><stop offset=".082" stop-color="#ebebec"/><stop offset=".249" stop-color="#bfc1c3"/><stop offset=".487" stop-color="#7d7f82"/><stop offset=".544" stop-color="#6d6e71"/><stop offset="1"/></radialGradient><path clip-path="url(#b)" fill="url(#c)" d="M31.81 7.62h35.002v35H31.81z"/><path d="M206.304 20.004c2.588 0 4.014 1.252 4.014 3.526 0 2.145-1.402 3.426-3.754 3.426h-1.648v3.281h-2.18V20.004h3.568zm-1.388 5.173h1.305c1.262 0 1.902-.555 1.902-1.647 0-1.108-.701-1.717-1.975-1.717h-1.232v3.364zm-6.19.963c0 1.502-.576 2.232-1.762 2.232-1.197 0-1.803-.752-1.803-2.232v-6.135h-2.182v5.989c-.006 1.465.359 2.576 1.086 3.307.676.678 1.65 1.023 2.898 1.023 1.799 0 3.941-.752 3.941-4.328v-5.99h-2.18v6.134h.002zm-11.691-6.222c2.211 0 4.572 1.371 4.572 5.216 0 3.825-2.361 5.188-4.572 5.188-2.215 0-4.586-1.363-4.586-5.188 0-3.846 2.371-5.216 4.586-5.216m0 8.497c.867 0 2.32-.426 2.32-3.28 0-2.854-1.453-3.28-2.32-3.28-1.504 0-2.332 1.165-2.332 3.28 0 2.116.828 3.28 2.332 3.28m-6.834-1.279c.359.73.67 1.365 1.391 1.365h.518v1.684l-.074.02c-.016.004-.395.104-1.059.104-1.723 0-2.25-1.186-2.717-2.229-.381-.857-.713-1.598-1.611-1.598h-.959v3.756h-2.18V20.004h3.625c2.65 0 3.885 1.033 3.885 3.252 0 1.373-.824 2.221-1.646 2.583.364.353.598.832.827 1.297m-4.51-2.346h1.215c1.211 0 1.963-.566 1.963-1.475 0-.956-.658-1.503-1.803-1.503h-1.375v2.978zm-7.983 1.707h2.25v.113c0 .662-.234 1.775-1.805 1.775-1.479 0-2.361-1.217-2.361-3.252 0-2.083.846-3.28 2.318-3.28 1.754 0 1.816 1.774 1.818 1.85l.004.115 2.033-.318v-.087c0-.739-.658-3.497-3.883-3.497-2.889 0-4.543 1.9-4.543 5.216 0 3.248 1.709 5.189 4.572 5.189 2.877 0 3.896-2.008 3.896-3.727v-1.777h-4.299v1.678zm-6.527-6.493h-2.592l-3.385 4.606v-4.606h-2.209v10.233h2.209v-4.708l3.471 4.708h2.621l-3.959-5.159 3.844-5.074zm-12.325 6.321l-3.579-6.321h-2.21v10.233h2.181v-6.104l3.564 6.104h2.223V20.004h-2.179v6.321zm-10.104-6.254l3.73 10.167h-2.265l-.874-2.508h-3.409l-.845 2.508h-2.282l3.757-10.233h2.162l.026.066zm-1.113 2.723l-1.104 3.228h2.235l-1.131-3.228zm-6.856 2.05c.787.226 1.814.946 1.814 2.483 0 1.85-1.311 2.91-3.597 2.91h-4.314V20.004h3.898c2.216 0 3.34.926 3.34 2.752 0 1.413-.643 1.913-1.141 2.088m-2.428-.656c.908 0 1.332-.383 1.332-1.203 0-.779-.54-1.174-1.604-1.174h-1.217v2.376h1.489zm-1.488 4.241h1.703c1.114 0 1.633-.418 1.633-1.316 0-1.101-.91-1.332-1.676-1.332h-1.66v2.648zm-11.162-8.425c3.186 0 5.087 1.977 5.087 5.288 0 3.143-1.697 4.945-4.657 4.945h-3.469V20.004h3.039zm-.859 8.425h1.274c1.569 0 2.507-1.184 2.507-3.166 0-2.29-.993-3.451-2.951-3.451h-.83v6.617zm-7.621-8.425h-2.18v10.233h6.607v-1.809h-4.427v-8.424zm-5.118 7.132c.36.73.672 1.365 1.392 1.365h.518v1.684l-.076.02c-.015.006-.393.105-1.058.105-1.721 0-2.25-1.186-2.715-2.23-.382-.855-.712-1.598-1.612-1.598h-.959v3.756h-2.18V20.004h3.626c2.649 0 3.884 1.033 3.884 3.252 0 1.373-.824 2.221-1.646 2.583.363.353.599.832.826 1.297m-4.51-2.346h1.217c1.209 0 1.961-.566 1.961-1.475 0-.956-.658-1.503-1.804-1.503h-1.375v2.978zm-7.996-4.872c2.211 0 4.573 1.371 4.573 5.216 0 3.825-2.361 5.188-4.573 5.188-2.217 0-4.585-1.363-4.585-5.188.001-3.846 2.369-5.216 4.585-5.216m0 8.497c.867 0 2.32-.426 2.32-3.28 0-2.854-1.453-3.28-2.32-3.28-1.504 0-2.333 1.165-2.333 3.28 0 2.116.829 3.28 2.333 3.28m-7.357-8.411h2.465l-2.938 10.233H79.31l-1.787-6.417-1.814 6.417h-2.46L70.31 20.004h2.537l1.719 7.467 2.063-7.467h1.832l1.994 7.467 1.789-7.467z"/></svg>